<svg width="14" height="14" viewBox="0 0 14 14" fill="red" xmlns="http://www.w3.org/2000/svg">
<path d="M6.66667 0C2.99266 0 0 2.99266 0 6.66667C0 10.3407 2.99266 13.3333 6.66667 13.3333C10.3407 13.3333 13.3333 10.3407 13.3333 6.66667C13.3333 2.99266 10.3407 0 6.66667 0ZM6.66667 1.33333C9.62008 1.33333 12 3.71325 12 6.66667C12 9.62008 9.62008 12 6.66667 12C3.71325 12 1.33333 9.62008 1.33333 6.66667C1.33333 3.71325 3.71325 1.33333 6.66667 1.33333ZM6 2.66667V6.94271L8.86198 9.80469L9.80469 8.86198L7.33333 6.39063V2.66667H6Z" fill="#191A26"/>
</svg>
