<svg width="25" height="23" viewBox="0 0 25 23" fill="none" xmlns="http://www.w3.org/2000/svg">
<path d="M24.853 1.34312C24.8504 1.34663 24.8478 1.34663 24.8478 1.35397L24.8424 1.361C24.8343 1.37217 24.8314 1.37568 24.8343 1.37568L17.0768 12.3398L15.2496 14.923C15.2464 14.9197 15.2427 14.9174 15.2387 14.916L15.2065 14.8943L7.735 10.4097L8.00742 10.2392L9.26697 9.44476L11.023 8.33813C11.0261 8.33462 11.0297 8.3321 11.0336 8.33079H11.0365L24.14 0.0768966C24.265 -0.00211654 24.4067 -0.0209189 24.541 0.0236432C24.6751 0.0682054 24.7939 0.173434 24.8775 0.321713C24.961 0.469995 25.0042 0.652341 24.9997 0.838262C24.9952 1.02418 24.9434 1.20241 24.853 1.34312Z" fill="url(#paint0_linear_1073_4549)"/>
<g style="mix-blend-mode:multiply" opacity="0.2">
<g style="mix-blend-mode:multiply" opacity="0.2">
<path d="M0.100024 6.82526H0.10287C0.100022 6.82877 0.100023 6.83228 0.097413 6.83611C0.097211 6.83413 0.0973411 6.83215 0.0977931 6.83027C0.0982452 6.82838 0.0990078 6.82666 0.100024 6.82526Z" fill="black"/>
</g>
</g>
<g style="mix-blend-mode:multiply" opacity="0.2">
<g style="mix-blend-mode:multiply" opacity="0.2">
<path d="M15.2506 14.9231C15.2506 14.9231 15.005 14.8034 14.5789 14.5857C14.1517 14.3571 13.5431 14.0526 12.8177 13.6533C12.092 13.2614 11.2477 12.7934 10.3498 12.2783C9.45187 11.7631 8.49676 11.1972 7.54189 10.6312C7.0673 10.3408 6.59271 10.0542 6.12596 9.76752C5.6592 9.48823 5.20336 9.19298 4.75843 8.9188C3.8738 8.36341 3.0511 7.83356 2.34966 7.36594C1.99633 7.13709 1.67811 6.91908 1.39217 6.72374C1.25193 6.62798 1.11715 6.53478 0.998264 6.45881C0.89155 6.39121 0.773247 6.36366 0.65585 6.37901C0.485677 6.39982 0.32623 6.49986 0.204988 6.66181C0.194336 6.67541 0.184423 6.69003 0.175327 6.70554C0.167021 6.71639 0.158956 6.73076 0.151599 6.74161C0.143713 6.75138 0.136486 6.76207 0.130005 6.77353C0.2245 6.56823 0.371745 6.41677 0.543788 6.34786C0.715834 6.27895 0.900695 6.29743 1.06328 6.39976L7.73647 10.4088L8.00889 10.2383C8.86315 10.757 9.71622 11.276 10.5147 11.7803C11.3993 12.3354 12.222 12.8688 12.9259 13.3332C13.6297 13.7976 14.2073 14.2001 14.6145 14.4759C14.9191 14.6865 15.1242 14.8315 15.2077 14.8934L15.24 14.9151C15.2439 14.9168 15.2475 14.9195 15.2506 14.9231Z" fill="black"/>
</g>
</g>
<path d="M15.2507 14.923L12.3083 19.0846C12.3062 19.0879 12.3045 19.0915 12.3031 19.0955C12.3031 19.0955 12.3002 19.092 12.3002 19.0955L9.95361 22.415C9.91965 22.4637 9.88368 22.5097 9.84588 22.5529C9.69825 22.7211 9.52636 22.8465 9.34098 22.921C9.15561 22.9955 8.96077 23.0176 8.76872 22.9859C8.57668 22.9542 8.39162 22.8694 8.22513 22.7369C8.05865 22.6043 7.91435 22.4268 7.80135 22.2155L3.12143 13.4717V13.4682C3.11597 13.4643 3.11597 13.4608 3.11597 13.4608L3.05949 13.3555L0.146465 7.91684C0.0621466 7.76638 0.0119393 7.58635 0.00187815 7.39838C-0.00818299 7.21045 0.0223308 7.0226 0.089752 6.85746C0.0922574 6.85318 0.0941111 6.84829 0.0952086 6.84309C0.0955722 6.84309 0.0959326 6.843 0.0962658 6.84281C0.0965989 6.84258 0.0968998 6.84229 0.0971457 6.84194C0.0973915 6.84159 0.0975761 6.84114 0.0976924 6.8407C0.0978087 6.84022 0.0978521 6.83974 0.0978191 6.83926V6.83575C0.0976172 6.83377 0.0977472 6.83179 0.0981992 6.82991C0.0986513 6.82803 0.099414 6.8263 0.10043 6.8249H0.103276C0.108496 6.81022 0.119413 6.79585 0.130092 6.77415C0.224586 6.56884 0.371832 6.41736 0.543876 6.34844C0.715919 6.27956 0.900783 6.29805 1.06337 6.40038L7.73657 10.4094L15.208 14.894L15.2403 14.9157C15.2441 14.9172 15.2476 14.9197 15.2507 14.923Z" fill="url(#paint1_linear_1073_4549)"/>
<g style="mix-blend-mode:multiply" opacity="0.2">
<g style="mix-blend-mode:multiply" opacity="0.2">
<path d="M17.0768 12.3399L15.2496 14.9231C15.2464 14.9198 15.2427 14.9174 15.2387 14.916L7.735 10.4097L8.00742 10.2393L9.26697 9.44482L17.0768 12.3399Z" fill="black"/>
</g>
</g>
<g style="mix-blend-mode:screen" opacity="0.5">
<g style="mix-blend-mode:screen" opacity="0.5">
<path d="M0.100017 6.82526H0.102863C0.100016 6.83228 0.0974066 6.83611 0.0974066 6.83962C0.0970203 6.83458 0.0979426 6.8295 0.100017 6.82526Z" fill="white"/>
</g>
</g>
<g style="mix-blend-mode:screen" opacity="0.5">
<g style="mix-blend-mode:screen" opacity="0.5">
<path d="M15.2506 14.9231C15.2506 14.9231 15.005 14.8034 14.5789 14.5857C14.1517 14.3571 13.5431 14.0526 12.8177 13.6533C12.092 13.2614 11.2477 12.7934 10.3498 12.2783C9.45187 11.7631 8.49676 11.1972 7.54189 10.6312C7.0673 10.3408 6.59271 10.0542 6.12596 9.76752C5.6592 9.48823 5.20336 9.19298 4.75843 8.9188C3.8738 8.36341 3.0511 7.83356 2.34966 7.36594C1.99633 7.13709 1.67811 6.91908 1.39217 6.72374C1.25193 6.62798 1.11715 6.53478 0.998264 6.45881C0.89155 6.39121 0.773247 6.36366 0.65585 6.37901C0.485677 6.39982 0.32623 6.49986 0.204988 6.66181C0.194336 6.67541 0.184423 6.69003 0.175327 6.70554C0.166662 6.71662 0.158725 6.72872 0.151599 6.74161C0.143713 6.75138 0.136486 6.76207 0.130005 6.77353C0.2245 6.56823 0.371745 6.41677 0.543788 6.34786C0.715834 6.27895 0.900695 6.29743 1.06328 6.39976L7.73647 10.4088L15.2079 14.8934L15.2402 14.9151C15.244 14.9168 15.2476 14.9195 15.2506 14.9231Z" fill="white"/>
</g>
</g>
<g style="mix-blend-mode:multiply" opacity="0.2">
<g style="mix-blend-mode:multiply" opacity="0.2">
<path d="M12.2998 19.0955L9.95315 22.415C9.91919 22.4637 9.88322 22.5097 9.84542 22.5529C9.6978 22.7211 9.5259 22.8465 9.34053 22.921C9.15515 22.9955 8.96031 23.0176 8.76827 22.9859C8.57625 22.9542 8.39116 22.8694 8.22467 22.7369C8.05819 22.6043 7.91389 22.4268 7.80089 22.2155L3.12097 13.4717C3.15348 13.5189 3.28826 13.7328 3.50064 14.0781C3.73794 14.4771 4.08866 15.0395 4.49063 15.729C4.89261 16.4184 5.35913 17.2273 5.84725 18.1053C6.33821 18.9761 6.84792 19.9247 7.36047 20.8663L7.73801 21.5813L7.92405 21.9366L7.97269 22.0237C7.98501 22.0491 7.99856 22.0734 8.01327 22.0965C8.04172 22.1484 8.07349 22.1969 8.10819 22.2414C8.23253 22.4105 8.38302 22.5408 8.54898 22.6229C8.71495 22.705 8.89233 22.7371 9.06852 22.7167C9.24082 22.6976 9.40816 22.6296 9.55948 22.5172C9.6319 22.4635 9.6997 22.3993 9.76165 22.3257L9.81576 22.2641L9.83711 22.2385L9.86084 22.2021L9.96051 22.0716C10.2249 21.716 10.4785 21.386 10.7158 21.0821C11.1826 20.4724 11.5872 19.9828 11.8622 19.6272C12.1087 19.3253 12.2649 19.1338 12.2998 19.0955Z" fill="black"/>
</g>
</g>
<g style="mix-blend-mode:screen" opacity="0.5">
<g style="mix-blend-mode:screen" opacity="0.5">
<path d="M24.9259 1.16886C24.9589 1.06854 24.9752 0.959589 24.9733 0.84982C24.9714 0.740054 24.9515 0.632203 24.9152 0.534002C24.8668 0.387714 24.7833 0.267397 24.6781 0.192205C24.5733 0.117013 24.4525 0.0912627 24.3353 0.119051C24.1877 0.184726 24.0465 0.273659 23.9145 0.383983C23.7608 0.488996 23.5988 0.601663 23.4315 0.717529C22.7571 1.18578 21.9669 1.71915 21.1172 2.28156C20.6901 2.55734 20.2515 2.85609 19.8009 3.13762C19.3503 3.41915 18.8976 3.71472 18.4417 4.00486C17.5246 4.5794 16.6074 5.14755 15.7415 5.66655C14.8757 6.18556 14.0667 6.66051 13.3686 7.05598C12.67 7.4588 12.082 7.76714 11.6719 7.99568C11.3186 8.18719 11.092 8.3005 11.0381 8.32955L24.1416 0.0756457C24.2667 -0.00258885 24.4079 -0.0207896 24.5419 0.0240775C24.6758 0.0689447 24.7942 0.174171 24.8775 0.322226C24.9608 0.470282 25.0037 0.652229 24.9992 0.837761C24.9949 1.02329 24.9434 1.20121 24.8535 1.34187C24.8822 1.288 24.9064 1.22997 24.9259 1.16886Z" fill="white"/>
</g>
</g>
<g style="mix-blend-mode:screen" opacity="0.3">
<g style="mix-blend-mode:screen" opacity="0.3">
<path d="M24.3056 1.0709L23.3212 2.46065C22.6118 3.46204 21.9033 4.46337 21.1957 5.46453L11.4154 8.89326C13.7081 7.44925 16.002 6.00524 18.2969 4.56123C20.1228 3.41215 21.95 2.26084 23.7783 1.10729C23.9537 0.998451 24.1291 0.885774 24.3044 0.77693C24.5192 0.639041 24.397 0.940033 24.3056 1.0709Z" fill="white"/>
</g>
</g>
<g style="mix-blend-mode:screen" opacity="0.3">
<g style="mix-blend-mode:screen" opacity="0.3">
<path d="M14.3363 15.1663C13.8884 15.7942 13.4425 16.4243 12.9984 17.0565C12.8743 17.2308 12.7504 17.4076 12.6263 17.5825L0.766113 7.05377C0.90255 7.08646 1.0333 7.15291 1.15172 7.24975C3.07238 8.4033 4.99376 9.55707 6.91584 10.711C9.38954 12.198 11.863 13.6831 14.3363 15.1663Z" fill="white"/>
</g>
</g>
<defs>
<linearGradient id="paint0_linear_1073_4549" x1="3.0562" y1="7.46151" x2="24.9999" y2="7.46151" gradientUnits="userSpaceOnUse">
<stop stop-color="#0B735F"/>
<stop offset="1" stop-color="#00DEFC"/>
</linearGradient>
<linearGradient id="paint1_linear_1073_4549" x1="13.4969" y1="11.6658" x2="2.06932" y2="14.9762" gradientUnits="userSpaceOnUse">
<stop stop-color="#FCC400"/>
<stop offset="0.162" stop-color="#FBC000"/>
<stop offset="0.307" stop-color="#FBB500"/>
<stop offset="0.446" stop-color="#FBA300"/>
<stop offset="0.581" stop-color="#FA8900"/>
<stop offset="0.712" stop-color="#FA6800"/>
<stop offset="0.842" stop-color="#F93F00"/>
<stop offset="0.967" stop-color="#F81000"/>
<stop offset="1" stop-color="#FE554A"/>
</linearGradient>
</defs>
</svg>
